<svg xmlns="http://www.w3.org/2000/svg" width="115" height="24" viewBox="0 0 115 24">
    <g fill="#FFF" fill-rule="evenodd">
        <path d="M103.936 12.754c0-2.676 1.877-4.566 4.065-4.566 2.19 0 4.067 1.89 4.067 4.566 0 2.677-1.877 4.567-4.067 4.567-2.188 0-4.065-1.89-4.065-4.567zm-2.503 6.587c0 .27.206.467.46.467h1.348l1.008-1.12s1.397 1.308 3.91 1.31c3.75.004 6.723-2.992 6.723-7.244 0-4.25-2.972-7.243-6.723-7.243-2.659 0-3.91 1.574-3.91 1.574V4.886l.005-.025h-.005V.001h-2.816v19.34zM93.332 17.311c-2.029 0-3.904-1.887-3.904-4.56 0-2.673 1.875-4.56 3.904-4.56 2.033 0 3.904 1.887 3.904 4.56 0 2.673-1.871 4.56-3.904 4.56m0-11.794c-3.746 0-6.714 2.989-6.714 7.233 0 4.246 2.968 7.235 6.714 7.235 3.75 0 6.717-2.989 6.717-7.235 0-4.244-2.968-7.233-6.717-7.233M85.243 11.302v8.492H82.43v-8.492c0-1.887-1.248-3.144-2.655-3.144-1.405 0-2.654 1.257-2.654 3.144v8.492H74.31v-8.492c0-1.887-1.25-3.144-2.655-3.144C70.25 8.158 69 9.415 69 11.302v8.492h-2.81V6.074c0-.239.192-.433.43-.433l1.085.002L69 6.915s1.094-1.431 3.28-1.431c2.655 0 3.905 2.201 3.905 2.201 0 .032 1.405-2.201 4.217-2.201 2.654 0 4.84 2.201 4.84 5.818M57.908 17.326c-2.186 0-4.058-1.886-4.058-4.557 0-2.67 1.872-4.555 4.058-4.555 2.182 0 4.055 1.885 4.055 4.555 0 2.671-1.873 4.557-4.055 4.557zM64.46.044h-2.81v4.85h-.005l.005.025v2.194s-1.248-1.57-3.9-1.57c-3.744 0-6.709 2.985-6.709 7.226 0 4.242 2.965 7.232 6.708 7.228 2.508-.002 3.897-1.194 3.897-1.194l.999 1.006 1.356-.002a.455.455 0 0 0 .459-.466V.044zM46.043 3.128c0-.729.604-1.336 1.328-1.336.725 0 1.329.607 1.329 1.336 0 .731-.604 1.339-1.329 1.339a1.345 1.345 0 0 1-1.328-1.339zm1.352 2.494c.757 0 1.37.635 1.37 1.417v12.755h-2.74V7.04c0-.782.614-1.417 1.37-1.417zM44.96 5.622l-5.522 13.902a.426.426 0 0 1-.396.27h-1.924a.427.427 0 0 1-.396-.27L31.2 5.622h2.97l3.91 10.236 3.91-10.236h2.97zM9.093 22.25L1.714 1.704 23.25 5.606 9.093 22.249zm15.81-17.235a1.604 1.604 0 0 0-1.237-1.045L1.9.027A1.607 1.607 0 0 0 .374.573C.079.919.012 1.185 0 1.793V23.75l6.285-4.319 1.256 3.497A1.606 1.606 0 0 0 9.007 24c.497.02.97-.184 1.3-.57L24.612 6.606c.38-.445.488-1.04.29-1.59z"/>
    </g>
</svg>
